<svg xmlns="http://www.w3.org/2000/svg" width="240" height="240" viewBox="0 0 23 23" shape-rendering="crispEdges"><path stroke="#241640" d="M1 1.5h7m2 0h3m2 0h7M1 2.5h1m5 0h1m5 0h1m1 0h1m5 0h1M1 3.5h1m1 0h3m1 0h1m1 0h1m1 0h2m2 0h1m1 0h3m1 0h1M1 4.5h1m1 0h3m1 0h1m1 0h2m2 0h1m1 0h1m1 0h3m1 0h1M1 5.5h1m1 0h3m1 0h1m1 0h1m1 0h1m1 0h1m1 0h1m1 0h3m1 0h1M1 6.5h1m5 0h1m1 0h1m1 0h2m2 0h1m5 0h1M1 7.5h7m1 0h1m1 0h1m1 0h1m1 0h7M9 8.5h2M1 9.5h1m1 0h5m2 0h3m2 0h5M1 10.5h2m2 0h2m3 0h1m1 0h4m2 0h1M1 11.5h7m5 0h1m1 0h2M3 12.5h3m3 0h2m1 0h4m2 0h1m2 0h1M1 13.5h1m1 0h1m1 0h1m1 0h3m1 0h1m1 0h1m2 0h1m2 0h2M9 14.5h1m1 0h1m1 0h1m2 0h1m2 0h2M1 15.5h7m2 0h3m1 0h1m2 0h5M1 16.5h1m5 0h1m1 0h3m4 0h2m1 0h1M1 17.5h1m1 0h3m1 0h1m1 0h4m1 0h1m2 0h3M1 18.5h1m1 0h3m1 0h1m1 0h1m2 0h4m2 0h1M1 19.5h1m1 0h3m1 0h1m1 0h3m1 0h1m1 0h2M1 20.5h1m5 0h1m2 0h1m1 0h4m2 0h1m2 0h1M1 21.5h7m1 0h3m1 0h1m2 0h1m2 0h1"/></svg>
