<?xml version="1.0" encoding="utf-8"?>
<!-- Generator: Adobe Illustrator 16.0.0, SVG Export Plug-In . SVG Version: 6.00 Build 0)  -->
<!DOCTYPE svg PUBLIC "-//W3C//DTD SVG 1.1//EN" "http://www.w3.org/Graphics/SVG/1.1/DTD/svg11.dtd">
<svg version="1.1" id="Layer_1" xmlns="http://www.w3.org/2000/svg" xmlns:xlink="http://www.w3.org/1999/xlink" x="0px" y="0px"
	 width="850.39px" height="850.39px" viewBox="0 0 850.39 850.39" enable-background="new 0 0 850.39 850.39" xml:space="preserve">
<g>
	<rect x="3.248" y="218.93" fill-rule="evenodd" clip-rule="evenodd" fill="#FFFFFF" width="843.904" height="158.92"/>
	<path fill="#EE3325" d="M850.395,381.091H0V215.683h850.394V381.091z M6.496,374.609h837.417V222.178H6.496V374.609z"/>
	<polygon fill-rule="evenodd" clip-rule="evenodd" fill="#ED1C24" points="20.14,235.949 20.14,360.233 81.532,360.233 
		144.424,298.091 83.795,235.949 	"/>
	<path fill="#EE3325" d="M82.867,363.487h-65.98V232.695h68.281l63.839,65.44L82.867,363.487z M23.394,356.979h56.804l59.644-58.933
		l-57.42-58.844H23.394V356.979z"/>
	<polygon fill-rule="evenodd" clip-rule="evenodd" fill="#ED1C24" points="571.207,235.949 695.49,236.706 756.883,297.341 
		695.49,360.233 570.443,360.233 632.586,298.091 	"/>
	<path fill="#EE3325" d="M696.863,363.487H562.589l65.409-65.409l-64.621-65.428l133.461,0.813l64.633,63.833L696.863,363.487z
		 M578.299,356.979h115.818l58.177-59.594l-58.151-57.439l-115.106-0.699l58.138,58.856L578.299,356.979z"/>
	<polygon fill-rule="evenodd" clip-rule="evenodd" fill="#ED1C24" points="768.844,235.949 830.234,235.193 830.234,360.233 
		768.844,360.996 829.473,298.091 	"/>
	<path fill="#EE3325" d="M761.103,364.339l63.845-66.235l-63.73-65.313l72.271-0.89v65.65l0.51,0.527l-0.51,0.534v64.837
		L761.103,364.339z M826.98,305.362l-50.396,52.291l50.396-0.635V305.362z M776.469,239.108l50.512,51.776v-52.399L776.469,239.108z
		"/>
	<polygon fill-rule="evenodd" clip-rule="evenodd" fill="#ED1C24" points="369.045,235.949 493.329,236.706 554.721,297.341 
		493.329,360.233 368.283,360.233 430.438,298.091 	"/>
	<path fill="#EE3325" d="M494.701,363.487H360.427l65.428-65.409l-64.64-65.428l133.449,0.813l64.633,63.833L494.701,363.487z
		 M376.138,356.979h115.818l58.177-59.594l-58.151-57.439l-115.106-0.699l58.145,58.856L376.138,356.979z"/>
	<polygon fill-rule="evenodd" clip-rule="evenodd" fill="#ED1C24" points="166.896,235.949 291.18,236.706 352.572,297.341 
		291.18,360.233 166.134,360.233 228.276,298.091 	"/>
	<path fill="#EE3325" d="M292.553,363.487H158.285l65.408-65.409l-64.626-65.428l133.454,0.813l64.633,63.833L292.553,363.487z
		 M173.982,356.979h115.825l58.183-59.594l-58.151-57.439l-115.113-0.699l58.132,58.856L173.982,356.979z"/>
	<rect x="322.378" y="481.893" fill-rule="evenodd" clip-rule="evenodd" fill="#FFFFFF" width="205.637" height="149.564"/>
	<path fill="#EE3325" d="M531.27,634.711H319.125V478.639H531.27V634.711z M325.632,628.203h199.129V485.146H325.632V628.203z"/>
	<polygon fill-rule="evenodd" clip-rule="evenodd" fill="#ED1C24" points="338.533,494.629 364.476,494.629 425.639,556.732 
		363.09,618.823 337.605,618.823 	"/>
	<path fill="#EE3325" d="M364.431,622.077h-30.105l0.979-130.702h30.531l64.392,65.383L364.431,622.077z M340.885,615.569h20.864
		l59.301-58.862l-57.935-58.824h-21.354L340.885,615.569z"/>
	<polygon fill-rule="evenodd" clip-rule="evenodd" fill="#ED1C24" points="427.037,495.086 513.679,495.086 513.679,618.823 
		425.639,618.823 487.736,556.732 	"/>
	<path fill="#EE3325" d="M516.933,622.077h-99.149l65.376-65.358l-63.889-64.887h97.662V622.077z M433.494,615.569h76.931V498.34
		h-75.622l57.521,58.405L433.494,615.569z"/>
</g>
</svg>
