<?xml version="1.0" encoding="utf-8"?>
<!-- Generator: Adobe Illustrator 16.0.0, SVG Export Plug-In . SVG Version: 6.00 Build 0)  -->
<!DOCTYPE svg PUBLIC "-//W3C//DTD SVG 1.1//EN" "http://www.w3.org/Graphics/SVG/1.1/DTD/svg11.dtd">
<svg version="1.1" id="Layer_1" xmlns="http://www.w3.org/2000/svg" xmlns:xlink="http://www.w3.org/1999/xlink" x="0px" y="0px"
	 width="850.39px" height="850.39px" viewBox="0 0 850.39 850.39" enable-background="new 0 0 850.39 850.39" xml:space="preserve">
<g>
	<rect x="3.253" y="345.74" fill-rule="evenodd" clip-rule="evenodd" fill="#FFFFFF" width="843.886" height="158.915"/>
	<path fill="#EE3325" d="M850.394,507.908H0V342.486h850.394V507.908z M6.507,501.4h837.378V348.993H6.507V501.4z"/>
	<polygon fill-rule="evenodd" clip-rule="evenodd" fill="#ED1C24" points="300.733,425.349 365.262,362.269 488.537,362.269 
		551.631,424.631 489.986,486.986 363.813,486.986 	"/>
	<path fill="#EE3325" d="M491.346,490.24h-128.86l-66.404-64.891l67.853-66.334h125.938l66.359,65.59L491.346,490.24z
		 M365.135,483.732h123.492l58.402-59.076l-59.826-59.134H366.59l-61.205,59.826L365.135,483.732z"/>
	<polygon fill-rule="evenodd" clip-rule="evenodd" fill="#ED1C24" points="571.471,362.485 695.763,363.241 757.14,423.869 
		695.763,486.771 570.708,486.771 632.86,424.631 	"/>
	<path fill="#EE3325" d="M697.135,490.024H562.854l65.418-65.406l-64.631-65.431L697.109,360l64.619,63.824L697.135,490.024z
		 M578.562,483.518h115.828l58.16-59.604l-58.135-57.431l-115.115-0.699l58.148,58.86L578.562,483.518z"/>
	<polygon fill-rule="evenodd" clip-rule="evenodd" fill="#ED1C24" points="284.706,486.771 160.414,486.008 99.037,425.387 
		160.414,362.485 285.456,362.485 223.316,424.631 	"/>
	<path fill="#EE3325" d="M292.535,490.075l-133.462-0.826l-64.618-63.817l64.586-66.2h134.263l-65.406,65.412L292.535,490.075z
		 M161.755,482.768l115.122,0.698l-58.143-58.848l58.873-58.879h-115.82l-58.168,59.604L161.755,482.768z"/>
	<polygon fill-rule="evenodd" clip-rule="evenodd" fill="#ED1C24" points="763.901,361.729 825.278,360.973 825.278,486.008 
		763.901,486.771 824.528,423.869 	"/>
	<path fill="#EE3325" d="M756.161,490.113l63.843-66.232l-63.729-65.311l72.257-0.89v65.635l0.521,0.541l-0.521,0.546v64.821
		L756.161,490.113z M822.024,431.145l-50.383,52.283l50.383-0.635V431.145z M771.527,364.887l50.497,51.762v-52.384L771.527,364.887
		z"/>
	<polygon fill-rule="evenodd" clip-rule="evenodd" fill="#ED1C24" points="84.064,361.729 22.688,360.973 22.688,486.008 
		84.064,486.771 23.437,423.869 	"/>
	<path fill="#EE3325" d="M91.805,490.113l-72.371-0.89v-64.821l-0.527-0.546l0.527-0.541v-65.635l72.257,0.89l-63.722,65.311
		L91.805,490.113z M25.941,482.793l50.383,0.635l-50.383-52.283V482.793z M25.941,364.265v52.384l50.498-51.762L25.941,364.265z"/>
</g>
</svg>
