<?xml version="1.0" encoding="utf-8"?>
<!-- Generator: Adobe Illustrator 16.0.0, SVG Export Plug-In . SVG Version: 6.00 Build 0)  -->
<!DOCTYPE svg PUBLIC "-//W3C//DTD SVG 1.1//EN" "http://www.w3.org/Graphics/SVG/1.1/DTD/svg11.dtd">
<svg version="1.1" id="Layer_1" xmlns="http://www.w3.org/2000/svg" xmlns:xlink="http://www.w3.org/1999/xlink" x="0px" y="0px"
	 width="850.39px" height="850.39px" viewBox="0 0 850.39 850.39" enable-background="new 0 0 850.39 850.39" xml:space="preserve">
<g>
	<g>
		<rect x="3.253" y="218.935" fill-rule="evenodd" clip-rule="evenodd" fill="#FFFFFF" width="843.886" height="158.92"/>
		<path fill="#EE3325" d="M850.394,381.109H0V215.681h850.394V381.109z M6.507,374.602h837.378V222.189H6.507V374.602z"/>
		<polygon fill-rule="evenodd" clip-rule="evenodd" fill="#ED1C24" points="830.248,235.954 830.248,360.239 768.858,360.239 
			705.956,298.087 766.583,235.954 		"/>
		<path fill="#EE3325" d="M833.502,363.493h-65.979l-66.156-65.368l63.844-65.425h68.291V363.493z M770.193,356.985h56.801V239.208
			h-59.038l-57.411,58.841L770.193,356.985z"/>
		<polygon fill-rule="evenodd" clip-rule="evenodd" fill="#ED1C24" points="279.202,235.954 154.91,236.71 93.533,297.337 
			154.91,360.239 279.952,360.239 217.812,298.087 		"/>
		<path fill="#EE3325" d="M287.801,363.493H153.538l-64.586-66.194l64.618-63.83l1.322-0.013l132.141-0.801l-64.637,65.419
			L287.801,363.493z M156.283,356.985h115.82L213.23,298.1l58.143-58.848l-115.122,0.699l-58.136,57.424L156.283,356.985z"/>
		<polygon fill-rule="evenodd" clip-rule="evenodd" fill="#ED1C24" points="81.561,235.954 20.184,235.191 20.184,360.239 
			81.561,361.002 20.934,298.087 		"/>
		<path fill="#EE3325" d="M89.301,364.345l-72.371-0.89v-64.834l-0.527-0.547l0.527-0.546v-65.628l72.257,0.896L25.464,298.1
			L89.301,364.345z M23.437,357.024l50.383,0.635L23.437,305.37V357.024z M23.437,238.483v52.385l50.498-51.755L23.437,238.483z"/>
		<polygon fill-rule="evenodd" clip-rule="evenodd" fill="#ED1C24" points="481.344,235.954 357.064,236.71 295.674,297.337 
			357.064,360.239 482.105,360.239 419.966,298.087 		"/>
		<path fill="#EE3325" d="M489.961,363.493h-134.27l-64.599-66.194l64.63-63.83l1.322-0.013l132.127-0.801l-64.625,65.419
			L489.961,363.493z M358.437,356.985h115.827L415.384,298.1l58.129-58.848l-115.108,0.699l-58.149,57.424L358.437,356.985z"/>
		<polygon fill-rule="evenodd" clip-rule="evenodd" fill="#ED1C24" points="683.498,235.954 559.205,236.71 497.828,297.337 
			559.205,360.239 684.247,360.239 622.107,298.087 		"/>
		<path fill="#EE3325" d="M692.102,363.493H557.833l-64.58-66.194l64.618-63.83l1.322-0.013l132.133-0.801l-64.631,65.419
			L692.102,363.493z M560.578,356.985h115.814L617.52,298.1l58.148-58.848l-115.115,0.699l-58.136,57.424L560.578,356.985z"/>
	</g>
	<g>
		<rect x="322.372" y="481.888" fill-rule="evenodd" clip-rule="evenodd" fill="#FFFFFF" width="205.655" height="149.572"/>
		<path fill="#EE3325" d="M531.281,634.714H319.118v-156.08h212.163V634.714z M325.626,628.206h199.147V485.141H325.626V628.206z"/>
		<polygon fill-rule="evenodd" clip-rule="evenodd" fill="#ED1C24" points="511.873,494.636 485.919,494.636 424.752,556.737 
			487.317,618.839 512.801,618.839 		"/>
		<path fill="#EE3325" d="M516.08,622.092h-30.11l-65.806-65.329l64.395-65.381h30.543L516.08,622.092z M488.652,615.585h20.869
			l-0.877-117.695h-21.365l-57.939,58.822L488.652,615.585z"/>
		<polygon fill-rule="evenodd" clip-rule="evenodd" fill="#ED1C24" points="423.366,495.105 336.709,495.105 336.709,618.839 
			424.752,618.839 362.663,556.737 		"/>
		<path fill="#EE3325" d="M432.6,622.092h-99.145v-130.24h97.678l-63.888,64.873L432.6,622.092z M339.963,615.585h76.94
			l-58.822-58.835l57.52-58.391h-75.638V615.585z"/>
	</g>
</g>
</svg>
