<svg xmlns="http://www.w3.org/2000/svg" width="660.17902" height="580.2178" viewBox="0 0 660.17902 580.2178">
  <defs>
    <style>
      .a {
        fill: #fff;
      }

      .b {
        fill: #da251d;
      }
    </style>
  </defs>
  <g>
    <path class="a" d="M31.96143,579.10938a31,31,0,0,1-26.84668-46.5L303.15332,16.39111a30.99981,30.99981,0,0,1,53.69336,0L654.88574,532.60938a31,31,0,0,1-26.84765,46.5Z" transform="translate(0.08956 0.10891)"/>
    <path d="M330,1.89109a29.71926,29.71926,0,0,1,25.9808,15l298.03837,516.2178a30,30,0,0,1-25.98072,45H31.96155a30,30,0,0,1-25.98082-45L304.0192,16.89109a29.71926,29.71926,0,0,1,25.9808-15m0-2a31.67452,31.67452,0,0,0-27.71292,16L4.24864,532.10889a32.00008,32.00008,0,0,0,27.71291,48h596.0769a31.99994,31.99994,0,0,0,27.71283-48L357.71292,15.89109A31.67452,31.67452,0,0,0,330-.10891Z" transform="translate(0.08956 0.10891)"/>
  </g>
  <path class="b" d="M567.41753,523.21885H92.58272a10,10,0,0,1-8.66026-15L321.33979,96.99906a10,10,0,0,1,17.32051,0l237.41748,411.2198A10,10,0,0,1,567.41753,523.21885ZM330,11.999A19.81282,19.81282,0,0,0,312.67946,21.999L14.64044,538.21885a20,20,0,0,0,17.3206,30H628.039a20.00012,20.00012,0,0,0,17.32062-30L347.32063,21.999A19.81284,19.81284,0,0,0,330,11.999Z" transform="translate(0.08956 0.10891)"/>
  <polygon points="569.69 515.609 90.49 515.609 485.89 370.459 569.69 515.609"/>
  <g>
    <path d="M219.76929,336.80423,234.826,331.0245,273.35809,431.404l-17.56663,6.7432-29.8623-77.794-10.2093,13.58439-8.87466-5.43656Z" transform="translate(0.08956 0.10891)"/>
    <path d="M336.5439,349.56264c11.56017,30.11526,5.94582,56.74356-14.12981,64.44987s-42.06571-8.32564-53.62588-38.4409c-11.55929-30.113-5.94529-56.74219,14.13034-64.44851S325.60371,321.06245,336.5439,349.56264Zm-50.19,19.26612c9.63324,25.09545,20.39408,33.30383,30.0736,29.58822s12.183-17.0157,2.54975-42.11115c-9.63272-25.09407-20.39265-33.30281-30.07217-29.58719S276.72121,343.73469,286.35393,368.82876Z" transform="translate(0.08956 0.10891)"/>
    <path d="M368.96291,310.794a18.23975,18.23975,0,1,1-23.56453-10.49236A18.35535,18.35535,0,0,1,368.96291,310.794Zm24.0158-24.23156L377.75925,393.17754l-12.23912-1.88143L380.73889,284.6792Zm-46.60042,32.901a5.95166,5.95166,0,1,0,3.42375-7.68987A5.7488,5.7488,0,0,0,346.37829,319.46345Zm76.50983,36.44276a18.24023,18.24023,0,1,1-23.56544-10.492A18.356,18.356,0,0,1,422.88812,355.90621ZM400.30259,364.576a5.95214,5.95214,0,1,0,3.4234-7.69078A5.74855,5.74855,0,0,0,400.30259,364.576Z" transform="translate(0.08956 0.10891)"/>
  </g>
</svg>
