<svg xmlns="http://www.w3.org/2000/svg" width="660.17902" height="580.2178" viewBox="0 0 660.17902 580.2178">
  <defs>
    <style>
      .a {
        fill: #fff;
      }

      .b {
        fill: #da251d;
      }
    </style>
  </defs>
  <g>
    <path class="a" d="M31.96143,579.10938a31,31,0,0,1-26.84668-46.5L303.15332,16.39111a30.99981,30.99981,0,0,1,53.69336,0L654.88574,532.60938a31,31,0,0,1-26.84765,46.5Z" transform="translate(0.08956 0.10891)"/>
    <path d="M330,1.89109a29.71926,29.71926,0,0,1,25.9808,15l298.03837,516.2178a30,30,0,0,1-25.98072,45H31.96155a30,30,0,0,1-25.98082-45L304.0192,16.89109a29.71926,29.71926,0,0,1,25.9808-15m0-2a31.67452,31.67452,0,0,0-27.71292,16L4.24864,532.10889a32.00008,32.00008,0,0,0,27.71291,48h596.0769a31.99994,31.99994,0,0,0,27.71283-48L357.71292,15.89109A31.67452,31.67452,0,0,0,330-.10891Z" transform="translate(0.08956 0.10891)"/>
  </g>
  <path class="b" d="M567.41753,523.21885H92.58272a10,10,0,0,1-8.66026-15L321.33979,96.99906a10,10,0,0,1,17.32051,0l237.41748,411.2198A10,10,0,0,1,567.41753,523.21885ZM330,11.999A19.81282,19.81282,0,0,0,312.67946,21.999L14.64044,538.21885a20,20,0,0,0,17.3206,30H628.039a20.00012,20.00012,0,0,0,17.32062-30L347.32063,21.999A19.81284,19.81284,0,0,0,330,11.999Z" transform="translate(0.08956 0.10891)"/>
  <polygon points="90.49 515.609 569.69 515.609 174.29 370.459 90.49 515.609"/>
  <g>
    <path d="M288.64433,278.80761l15.05672,5.77973L265.169,384.96683l-17.56662-6.7432,29.86232-77.79395-16.67673,3.26381-2.95738-9.97846Z" transform="translate(0.08956 0.10891)"/>
    <path d="M366.88773,366.42644c-11.56018,30.11526-33.55027,46.1472-53.62589,38.44089s-25.69-34.33462-14.1298-64.44988c11.55929-30.113,33.54974-46.14584,53.62536-38.43952S377.82793,337.92625,366.88773,366.42644Zm-50.19-19.26614c-9.63324,25.09544-7.12886,38.39587,2.55065,42.11149s20.43945-4.49311,30.0727-29.58855c9.63272-25.09408,7.12925-38.39416-2.55027-42.10978S326.33047,322.06622,316.69775,347.1603Z" transform="translate(0.08956 0.10891)"/>
    <path d="M416.921,359.3083a18.23975,18.23975,0,1,1-10.49109-23.56509A18.35534,18.35534,0,0,1,416.921,359.3083Zm34.0613-1.93785-82.64969,69.04663-7.83651-9.58775,82.65039-69.04845Zm-56.64592-6.73158a5.95166,5.95166,0,1,0,7.68987-3.42374A5.7488,5.7488,0,0,0,394.33639,350.63887Zm32.4729,78.27733a18.24024,18.24024,0,1,1-10.492-23.56544A18.356,18.356,0,0,1,426.80929,428.9162Zm-22.58553-8.66978a5.95215,5.95215,0,1,0,7.69022-3.42466A5.74856,5.74856,0,0,0,404.22376,420.24642Z" transform="translate(0.08956 0.10891)"/>
  </g>
</svg>
